<svg width="512" height="512" viewBox="0 0 512 512" fill="none" xmlns="http://www.w3.org/2000/svg">
<path d="M414.3 173.9V343.5C414.3 357.9 402.7 369.5 388.3 369.5H139.1C124.7 369.5 113.1 357.9 113.1 343.5V173.9H113.2C108.1 156.1 103 138.2 97.9 120.4C97.4 118.5 98.4 116.5 100.3 115.9L129.4 106.8C130.8 106.4 132.3 106.6 133.4 107.5C151.3 121.4 169.3 135.4 187.2 149.3C188.5 150.3 188.1 152.3 186.6 152.8L119.4 173.8H414.3V173.9Z" fill="url(#paint0_linear_5_2)"/>
<path d="M398.7 86.4H398.6L376.8 93.2C376 93.4 375.1 93.3 374.5 92.7C357.9 78.9 341.3 65 324.8 51.2C324.3 50.8 323.8 50.4 323.4 50C321.9 48.7 322.4 46.3 324.3 45.7L326.9 44.9L351.1 37.3L363.1 33.5L383.4 27.1L383.5 27.5L384.4 30.6C389.7 48.1 395 65.7 400.3 83.2C400.6 84.6 399.9 85.9 398.7 86.4Z" fill="url(#paint1_linear_5_2)"/>
<path d="M349.7 101.7L320.6 110.8L304.2 115.9L303.9 116H303.8C301.5 116.7 299.3 117.4 297 118C296.5 118.2 295.9 118 295.5 117.7C293.1 115.8 290.8 113.9 288.4 111.9C272.9 99.2999 257.3 86.6 241.8 74C240.8 73.2 241.1 71.5999 242.3 71.1999L293 55.3C293.5 55.1 294 55.2 294.5 55.6C301.6 61.1 308.7 66.6 315.7 72.1C327.1 81 338.6 89.9 350 98.8C351.2 99.7 350.9 101.3 349.7 101.7Z" fill="url(#paint2_linear_5_2)"/>
<path d="M215 143.1C215.4 143.4 216 143.6 216.5 143.4L268.9 127C270.2 126.6 270.5 124.9 269.4 124.1C251 109.8 232.5 95.4 214 81C213.6 80.7 213 80.6 212.5 80.7L161.8 96.6C160.6 97 160.2 98.6 161.3 99.4C179.2 114 197.1 128.6 215 143.1Z" fill="url(#paint3_linear_5_2)"/>
<path opacity="0.25" d="M295.6 117.8C293.2 115.9 290.9 114 288.5 112C298.7 100.4 308.3 87.2 315.9 72.2C327.3 81.1 338.8 90 350.2 98.9C351.2 99.7 350.9 101.3 349.7 101.7L320.6 110.8L304.2 115.9L303.9 116H303.8C301.5 116.7 299.3 117.4 297 118C296.5 118.3 296 118.2 295.6 117.8Z" fill="white"/>
<path opacity="0.25" d="M326.7 45C326.1 47.1 325.4 49.2 324.7 51.3C341.3 65.1 357.9 79 374.4 92.8C375.1 93.3 375.9 93.5 376.7 93.3L398.5 86.5H398.6C398.6 86.4 399 86.3 399.1 86.2C399.6 86 399.9 85.4 400 85.1C400.3 84.3 400.1 83.6 400.1 83.4C394.4 64.7 388.8 46 383.1 27.4C364.4 33.2 345.5 39.1 326.7 45Z" fill="white"/>
<path opacity="0.25" d="M414.3 173.9V196.8C388.6 238.4 362.1 263.8 342.2 279.4C325.7 292.4 306.7 304.3 282.5 329.2C267 345.1 255.8 359.7 248.8 369.5C212.2 369.5 175.6 369.5 139 369.5C124.6 369.5 113 357.9 113 343.5V232.7C115.3 231 117.8 229.1 120.6 227.2C143.2 211.5 161.5 204.3 173.5 198.9C189.7 191.5 202 183.6 215.6 173.9H414.3Z" fill="white"/>
<g filter="url(#filter0_d_5_2)">
<path d="M303.1 257.6L236.6 219.2C234.7 218.1 232.5 217.5 230.3 217.5C223.1 217.5 217.2 223.4 217.2 230.6V313C217.2 320.1 223 325.9 230.1 325.9C232.5 325.9 234.9 325.2 237 323.9L303.6 281.8C310.2 277.7 312.2 268.9 308.1 262.3C306.8 260.4 305.1 258.7 303.1 257.6Z" fill="white"/>
</g>
<path d="M53.2 418.2V496.3H36.2V418.2H53.2Z" fill="white"/>
<path d="M85.7999 496.3H69.2999V437.2H82.1999L84.1999 444.8C86.8999 442 89.8999 439.8 93.1999 438.3C96.4999 436.8 100.1 436 104.1 436C110.6 436 115.6 437.8 119.1 441.3C122.6 444.9 124.3 450 124.3 456.8V496.4H107.8V458.6C107.8 455.5 107.1 453.1 105.6 451.3C104.1 449.5 101.9 448.6 98.9999 448.6C96.7999 448.6 94.5999 449.2 92.1999 450.4C89.7999 451.6 87.6999 453.2 85.7999 455.3V496.3Z" fill="white"/>
<path d="M174 449.1H158.3V476.4C158.3 479.2 158.9 481.1 160.2 482.2C161.5 483.2 163.2 483.7 165.3 483.7C167 483.7 168.6 483.5 170.4 483.2C172.1 482.9 173.5 482.4 174.6 481.8L177.1 493.3C175.7 494 173.6 494.6 170.8 495.3C168 496 165 496.3 161.9 496.3C154.7 496.3 149.6 494.9 146.5 492C143.4 489.1 141.9 484.9 141.9 479.2V449.1H132.7V437.2H141.9V419H158.3V437.2H174V449.1Z" fill="white"/>
<path d="M186 496.3V437.2H198.8L200.7 447.9C202.1 444.8 204.3 442 207.4 439.6C210.5 437.2 214.3 436 218.9 436C220.8 436 222.5 436.2 224 436.6C225.5 437 226.7 437.5 227.7 438.1L225 451.1C224.1 450.6 222.9 450.2 221.5 449.8C220.1 449.4 218.4 449.2 216.5 449.2C212.4 449.2 209.1 450.5 206.4 453.2C203.7 455.9 202.4 460.3 202.4 466.4V496.3H186Z" fill="white"/>
<path d="M288.8 466.3C288.8 471.2 288 475.6 286.4 479.4C284.8 483.3 282.7 486.6 279.9 489.3C277.1 492 273.9 494.1 270.2 495.5C266.5 496.9 262.5 497.7 258.2 497.7C253.9 497.7 249.9 497 246.2 495.7C242.5 494.4 239.3 492.4 236.7 489.9C234 487.3 231.9 484.2 230.4 480.4C228.9 476.6 228.1 472.4 228.1 467.6C228.1 462.6 228.9 458.1 230.5 454.1C232.1 450.2 234.2 446.9 237 444.2C239.8 441.5 243 439.5 246.7 438.1C250.4 436.7 254.4 436 258.7 436C263 436 267 436.7 270.7 438C274.4 439.3 277.6 441.2 280.2 443.8C282.9 446.3 285 449.5 286.5 453.3C288 457 288.8 461.4 288.8 466.3ZM271.8 467C271.8 463.6 271.4 460.7 270.7 458.3C270 455.9 269 454 267.7 452.5C266.5 451 265 449.9 263.4 449.2C261.7 448.5 260.1 448.1 258.3 448.1C256.6 448.1 254.9 448.4 253.3 449C251.7 449.6 250.3 450.7 249.1 452.1C247.9 453.5 246.9 455.5 246.1 457.9C245.4 460.3 245 463.3 245 467C245 470.2 245.4 473 246.1 475.4C246.8 477.8 247.9 479.7 249.1 481.2C250.4 482.7 251.8 483.8 253.4 484.5C255 485.2 256.7 485.6 258.4 485.6C260.1 485.6 261.8 485.3 263.4 484.7C265 484.1 266.4 483 267.6 481.5C268.8 480 269.8 478.1 270.6 475.7C271.4 473.3 271.8 470.4 271.8 467Z" fill="white"/>
<path d="M301.7 418.2H318.7V483H350.2V496.4H301.7V418.2Z" fill="white"/>
<path d="M359.6 442.4C363.2 440.3 366.9 438.7 370.9 437.6C374.9 436.5 379.1 435.9 383.5 435.9C387.1 435.9 390.3 436.3 393.2 437.1C396.1 437.9 398.7 439.2 400.8 441C402.9 442.8 404.5 445.1 405.6 447.8C406.7 450.6 407.3 453.9 407.3 457.8V496.2H394.5L393 490.1H392.5C390.6 492.4 388.2 494.2 385.2 495.6C382.3 496.9 378.9 497.6 375 497.6C371.8 497.6 368.9 497.1 366.4 496.2C363.9 495.2 361.8 494 360.1 492.4C358.4 490.8 357.1 488.9 356.2 486.6C355.3 484.4 354.9 482 354.9 479.4C354.9 476 355.6 473.1 357.1 470.7C358.5 468.3 360.6 466.3 363.1 464.7C365.7 463.1 368.7 462 372.1 461.2C375.5 460.5 379.2 460.1 383.2 460.1H390.6V456.5C390.6 453.8 389.8 451.8 388.1 450.5C386.4 449.2 384 448.6 381 448.6C378.6 448.6 376.1 449 373.6 449.7C371.1 450.4 368.3 451.6 365.2 453.3L359.6 442.4ZM390.8 470.4L385.5 470.5C380.5 470.7 376.9 471.5 375 473C373 474.5 372 476.4 372 478.5C372 481.3 372.8 483.2 374.5 484.3C376.2 485.3 378.1 485.8 380.3 485.8C382.4 485.8 384.5 485.2 386.4 483.9C388.3 482.7 389.8 481.2 390.8 479.6V470.4Z" fill="white"/>
<path d="M480 467C480 471.7 479.3 476 477.9 479.8C476.5 483.6 474.6 486.8 472.1 489.5C469.6 492.2 466.7 494.2 463.3 495.6C459.9 497 456.2 497.7 452.3 497.7C448.4 497.7 445.1 497.1 442.4 495.9C439.7 494.7 437.3 493 435.2 490.9H434.7L433.6 496.4H421.7V407.9H438V442C440.1 440.1 442.5 438.6 445.3 437.5C448.1 436.4 451 435.9 454.2 435.9C462.3 435.9 468.6 438.6 473.2 444.1C477.8 449.6 480 457.2 480 467ZM463 467.3C463 461.2 461.8 456.5 459.4 453.3C457 450.1 453.6 448.5 449.2 448.5C446.9 448.5 444.7 449.1 442.8 450.2C440.8 451.3 439.2 452.6 438.1 454V481.2C439.2 482.4 440.6 483.5 442.3 484.3C444 485.1 445.8 485.5 447.7 485.5C449.7 485.5 451.6 485.1 453.5 484.4C455.4 483.7 457 482.5 458.5 481.1C459.9 479.6 461.1 477.7 461.9 475.5C462.6 473.2 463 470.5 463 467.3Z" fill="white"/>
<defs>
<filter id="filter0_d_5_2" x="209.2" y="212.5" width="109.028" height="124.4" filterUnits="userSpaceOnUse" color-interpolation-filters="sRGB">
<feFlood flood-opacity="0" result="BackgroundImageFix"/>
<feColorMatrix in="SourceAlpha" type="matrix" values="0 0 0 0 0 0 0 0 0 0 0 0 0 0 0 0 0 0 127 0" result="hardAlpha"/>
<feOffset dy="3"/>
<feGaussianBlur stdDeviation="4"/>
<feComposite in2="hardAlpha" operator="out"/>
<feColorMatrix type="matrix" values="0 0 0 0 0 0 0 0 0 0 0 0 0 0 0 0 0 0 0.25 0"/>
<feBlend mode="normal" in2="BackgroundImageFix" result="effect1_dropShadow_5_2"/>
<feBlend mode="normal" in="SourceGraphic" in2="effect1_dropShadow_5_2" result="shape"/>
</filter>
<linearGradient id="paint0_linear_5_2" x1="122.584" y1="326.123" x2="386.278" y2="150.755" gradientUnits="userSpaceOnUse">
<stop stop-color="#E53E24"/>
<stop offset="1" stop-color="#F5A067"/>
</linearGradient>
<linearGradient id="paint1_linear_5_2" x1="60.5855" y1="60.3394" x2="369.707" y2="60.3394" gradientUnits="userSpaceOnUse">
<stop stop-color="#E53E24"/>
<stop offset="0.0123069" stop-color="#E64327"/>
<stop offset="0.1015" stop-color="#EA5F3B"/>
<stop offset="0.2013" stop-color="#EE774B"/>
<stop offset="0.3145" stop-color="#F18A58"/>
<stop offset="0.4488" stop-color="#F39660"/>
<stop offset="0.6246" stop-color="#F59E66"/>
<stop offset="1" stop-color="#F5A067"/>
</linearGradient>
<linearGradient id="paint2_linear_5_2" x1="68.4169" y1="86.8064" x2="385.935" y2="86.8064" gradientUnits="userSpaceOnUse">
<stop stop-color="#E53E24"/>
<stop offset="0.0686266" stop-color="#E84E2F"/>
<stop offset="0.2217" stop-color="#EC6C43"/>
<stop offset="0.3839" stop-color="#F08353"/>
<stop offset="0.5574" stop-color="#F3935E"/>
<stop offset="0.7501" stop-color="#F49D65"/>
<stop offset="1" stop-color="#F5A067"/>
</linearGradient>
<linearGradient id="paint3_linear_5_2" x1="70.0158" y1="112.091" x2="377.282" y2="112.091" gradientUnits="userSpaceOnUse">
<stop stop-color="#E53E24"/>
<stop offset="0.0656678" stop-color="#E74D2E"/>
<stop offset="0.2211" stop-color="#EC6B43"/>
<stop offset="0.3853" stop-color="#F08253"/>
<stop offset="0.5603" stop-color="#F3935E"/>
<stop offset="0.7534" stop-color="#F49D65"/>
<stop offset="1" stop-color="#F5A067"/>
</linearGradient>
</defs>
</svg>
