<?xml version="1.0" encoding="utf-8"?>
<!-- Generator: Adobe Illustrator 24.3.0, SVG Export Plug-In . SVG Version: 6.00 Build 0)  -->
<svg version="1.1" id="Layer_1" xmlns="http://www.w3.org/2000/svg" xmlns:xlink="http://www.w3.org/1999/xlink" x="0px" y="0px"
	 viewBox="0 0 1280 720" style="enable-background:new 0 0 1280 720;" xml:space="preserve">
<style type="text/css">
	.st0{clip-path:url(#SVGID_2_);fill:#FFD246;}
	.st1{clip-path:url(#SVGID_4_);}
	.st2{fill:#F48B00;}
	.st3{clip-path:url(#SVGID_6_);fill:#CA220E;}
	.st4{opacity:0.89;clip-path:url(#SVGID_8_);fill:#FFD246;enable-background:new    ;}
	.st5{opacity:0.68;clip-path:url(#SVGID_10_);fill:#9D1D06;enable-background:new    ;}
	.st6{opacity:0.63;clip-path:url(#SVGID_12_);fill:#F48B00;enable-background:new    ;}
	.st7{clip-path:url(#SVGID_14_);}
	.st8{fill:#1E1C1C;}
	.st9{font-family:'Raleway-BoldItalic';}
	.st10{font-size:87.6636px;}
	.st11{letter-spacing:6;}
	.st12{clip-path:url(#SVGID_16_);}
	.st13{enable-background:new    ;}
	.st14{clip-path:url(#SVGID_18_);}
	.st15{font-size:111.7822px;}
	.st16{letter-spacing:9;}
	.st17{clip-path:url(#SVGID_20_);fill:#FF4817;}
	.st18{clip-path:url(#SVGID_22_);fill:#FF4817;}
	.st19{clip-path:url(#SVGID_24_);fill:#FFD246;}
	.st20{clip-path:url(#SVGID_26_);fill:#FF4A08;}
	.st21{clip-path:url(#SVGID_28_);fill:#FF4A08;}
	.st22{clip-path:url(#SVGID_30_);fill:#FF4A08;}
	.st23{clip-path:url(#SVGID_32_);fill:url(#SVGID_33_);}
	.st24{clip-path:url(#SVGID_35_);fill:url(#SVGID_36_);}
	.st25{clip-path:url(#SVGID_38_);fill:#FFAA00;}
	.st26{clip-path:url(#SVGID_40_);fill:#FF4A08;}
	.st27{clip-path:url(#SVGID_42_);fill:#FFAA00;}
	.st28{clip-path:url(#SVGID_44_);fill:#FFAA00;}
	.st29{clip-path:url(#SVGID_46_);fill:#FFAA00;}
	.st30{clip-path:url(#SVGID_48_);fill:#FFAA00;}
	.st31{clip-path:url(#SVGID_50_);fill:#FFD246;}
	.st32{clip-path:url(#SVGID_52_);fill:#FFAA00;}
	.st33{clip-path:url(#SVGID_54_);fill:#FFAA00;}
	.st34{clip-path:url(#SVGID_56_);fill:#FFAA00;}
	.st35{clip-path:url(#SVGID_58_);fill:#FFAA00;}
	.st36{clip-path:url(#SVGID_60_);fill:#FFD246;}
	.st37{clip-path:url(#SVGID_62_);fill:#FF4817;}
	.st38{clip-path:url(#SVGID_64_);fill:#CA220E;}
	.st39{clip-path:url(#SVGID_66_);}
	.st40{fill:#FFFFFF;}
	.st41{font-family:'Raleway-SemiBold';}
	.st42{font-size:122.8072px;}
	.st43{clip-path:url(#SVGID_68_);}
	.st44{opacity:0.32;fill:#343434;enable-background:new    ;}
	.st45{fill:#DBE2E8;}
	.st46{fill:#C42F34;}
	.st47{font-family:'OpenSans-SemiBold';}
	.st48{font-size:14.2801px;}
	.st49{clip-path:url(#SVGID_70_);fill:#FFD246;}
	.st50{clip-path:url(#SVGID_72_);fill:#FFAA00;}
</style>
<image style="overflow:visible;enable-background:new    ;" width="2000" height="1328" xlink:href="E76CB670.jpeg"  transform="matrix(0.64 0 0 0.5422 0 0)">
</image>
<g id="OBJECTS">
	<g>
		<g>
			<g>
				<defs>
					<rect id="SVGID_1_" width="1280" height="720"/>
				</defs>
				<clipPath id="SVGID_2_">
					<use xlink:href="#SVGID_1_"  style="overflow:visible;"/>
				</clipPath>
				<polygon class="st0" points="337.6,722.2 155.4,404.3 2,722.2 				"/>
			</g>
		</g>
		<g>
			<g>
				<defs>
					<rect id="SVGID_3_" width="1280" height="720"/>
				</defs>
				<clipPath id="SVGID_4_">
					<use xlink:href="#SVGID_3_"  style="overflow:visible;"/>
				</clipPath>
				<g class="st1">
					
						<image style="overflow:visible;opacity:0.35;enable-background:new    ;" width="629" height="646" xlink:href="E76CB677.png"  transform="matrix(0.2378 0 0 0.2378 -3.0491 581.5586)">
					</image>
					<g>
						<polygon class="st2" points="2,722.2 133.4,722.2 2,586.6 						"/>
					</g>
				</g>
			</g>
		</g>
		<g>
			<g>
				<defs>
					<rect id="SVGID_5_" width="1280" height="720"/>
				</defs>
				<clipPath id="SVGID_6_">
					<use xlink:href="#SVGID_5_"  style="overflow:visible;"/>
				</clipPath>
				<polygon class="st3" points="369,0 0,718.8 0,0 				"/>
			</g>
		</g>
		<g>
			<g>
				<defs>
					<rect id="SVGID_7_" width="1280" height="720"/>
				</defs>
				<clipPath id="SVGID_8_">
					<use xlink:href="#SVGID_7_"  style="overflow:visible;"/>
				</clipPath>
				<polygon class="st4" points="431,160.4 0,160.4 0,61.1 398.3,61.1 				"/>
			</g>
		</g>
		<g>
			<g>
				<defs>
					<rect id="SVGID_9_" width="1280" height="720"/>
				</defs>
				<clipPath id="SVGID_10_">
					<use xlink:href="#SVGID_9_"  style="overflow:visible;"/>
				</clipPath>
				<polygon class="st5" points="524,305.8 0,305.8 0,451.7 479.1,451.7 				"/>
			</g>
		</g>
		<g>
			<g>
				<defs>
					<rect id="SVGID_11_" width="1280" height="720"/>
				</defs>
				<clipPath id="SVGID_12_">
					<use xlink:href="#SVGID_11_"  style="overflow:visible;"/>
				</clipPath>
				<polygon class="st6" points="694.3,306 0,306 0,160.1 649.5,160.1 				"/>
			</g>
		</g>
		<g>
			<g>
				<defs>
					<rect id="SVGID_13_" width="1280" height="720"/>
				</defs>
				<clipPath id="SVGID_14_">
					<use xlink:href="#SVGID_13_"  style="overflow:visible;"/>
				</clipPath>
				<g class="st7">
					<text transform="matrix(1 0 0 1 28.0389 149.1665)" class="st8 st9 st10 st11">recipe</text>
				</g>
			</g>
		</g>
		<g>
			<g>
				<defs>
					<rect id="SVGID_15_" width="1280" height="720"/>
				</defs>
				<clipPath id="SVGID_16_">
					<use xlink:href="#SVGID_15_"  style="overflow:visible;"/>
				</clipPath>
				<g class="st12">
					<g>
						<g class="st13">
							<path class="st8" d="M116.6,225.8c4.7,0,9.2,2.4,5.2,19.5c-1.5,6.7-3.7,16-5.3,22.8c-0.8,3.1-0.6,4.5,0.4,4.5
								s4.7-1.6,8.4-5.8l2,4c-8.1,9.7-17.2,14-22,14c-4,0-6.8-2.6-3.8-16c2-9.2,3.8-15.4,5.5-23.1c1.5-6.2,0.9-8.2-1-8.2
								c-3.5,0-11.2,7-16.7,16.2c-2.8,4.5-3.5,7.7-4.5,11.9c-1.3,5.4-2.5,10.9-3.5,16.4c-5.3,0.5-10.6,1.6-14.7,2.8l-0.9-1.1
								c3-12.7,6-24.5,9.1-39c0.8-3.9,1.1-7.2-1.5-7.2c-3.8,0-11.2,7.2-16.7,16.5c-2.6,4.4-3.5,7.8-4.5,11.8
								c-1.3,5.3-2.5,10.9-3.5,16.2c-4.9,0.5-10.7,1.6-14.6,2.8l-0.9-1.1c3.2-13,6.4-26.7,9.6-41.1c0.9-3.8,0.6-5-0.4-5
								c-1.3,0-5.3,2.8-7.7,5.3l-1.9-4c8-8.6,14.2-13,20-13c4.4,0,6.7,5.2,4,17.1l-1,4.3c8-10.9,18.6-21.4,28-21.4
								c4,0,8.7,2.4,5.3,18.5l-0.8,3C96.5,236,108,225.8,116.6,225.8z"/>
							<path class="st8" d="M151.8,284.8c-7.7,0-15.9-4.1-15.9-19.1c0-11.8,5-24.5,14.5-31.9c5.2-3.9,13.2-7.8,20.1-7.8
								c9.2,0,13.3,5.2,13.3,11.1c0,13.2-19.1,18.2-31.6,20.6c-0.1,1.1-0.2,3.9-0.2,4.8c0,6.5,2,12.3,8.8,12.3
								c6.2,0,12.4-3.6,18.5-9.9l2,4C172.1,280,161.4,284.8,151.8,284.8z M152.8,252.8c13.1-3.1,17.1-8.4,17.1-15.1
								c0-4.1-2.1-5.9-5-5.9C161.6,231.8,155.2,235.7,152.8,252.8z"/>
							<path class="st8" d="M192.8,240.8c6.7-9.9,13.3-14.8,18.1-14.8c4,0,6.5,3.6,9.2,11.8l2,6.4c9.2-13.6,14.6-18.2,20-18.2
								c4.4,0,6.7,3.3,6.7,6.5c0,2.6-2.3,5.8-3.6,6.9c-1.3,1.1-2.3,1.6-3.5,1.6c-2-0.1-2.8-3.6-5.4-3.6c-2.8,0-7,4.1-12.3,12.2
								l4.9,15.5c1.9,5.8,3.4,8,5,8c1.5,0,4.6-1.9,8.8-7.4l2.4,3.6c-7,11.7-14.7,15.5-19.4,15.5c-4.4,0-7.2-3.6-10.4-14.3l-2.4-8
								c-9.9,15.6-15.4,22.4-21,22.4c-3.9,0-7-2.9-7-7.3c0.2-4.8,4.3-8.8,6.8-8.8c1.8,0,3.3,3.8,5.5,3.8s5.9-3.9,14-15.4l-3-10.3
								c-2.3-7.4-3.6-8.8-4.9-8.8c-1.1,0-3.5,1-7.3,6.2L192.8,240.8z"/>
							<path class="st8" d="M282.1,271c-7.9,9.6-16.9,13.8-22,13.8c-4.1,0-6.4-3.8-4.4-12.6c2.4-10.1,5.3-20.9,7.2-29.3
								c0.9-3.6,0.8-4.8-0.4-4.8c-1.3,0-4.1,1.8-6.9,4.1l-1.9-4c8.4-8.2,17.4-12.3,22-12.3c4.3,0,5.3,3.9,2.5,15.6
								c-1.9,7.8-4.6,18.6-6.5,26.4c-0.9,3.1-0.9,4.9,0.1,4.9s4.1-1.8,8.2-5.9L282.1,271z M284.3,208.1c0,5-3.8,9.8-9.3,9.8
								c-4.5,0-7.7-2.9-7.7-7.8c0-4.3,3.4-9.7,9.8-9.7C282,200.4,284.3,203.9,284.3,208.1z"/>
							<path class="st8" d="M334.1,270.2c-8.5,9.9-18.5,14.6-27,14.6c-10.1,0-16-7.2-16-19.1c0-10.7,4.5-22.4,13.7-30.4
								c5.5-4.9,15-9.3,21.9-9.3c6.2,0,10.8,2.3,10.9,6.2c0.1,3.1-2.6,7-5.4,8.3c-1.5,0.6-2.8,0.4-3.8-0.8c-3.8-4.6-6.7-7.2-9.8-7.2
								c-6.2,0-10.9,14.3-10.9,29.3c0,9.2,3.3,13,8.3,13c5.5,0,10.9-3.3,16.1-8.3L334.1,270.2z"/>
							<path class="st8" d="M402.8,270.6c-6.8,8.8-16,14.2-21.4,14.2c-4.1,0-6.3-3.6-4-15.5l0.9-4.4c-4.8,6.8-10.3,12.1-13.6,14.5
								c-4.4,3.5-8,5.4-12.3,5.4c-5.3,0-9.4-5-9.4-15.2c0-12.2,4.9-24.9,13.8-33.2c6.9-6.2,16.9-10.4,26.2-10.4c7,0,14.7,2,17.6,2.3
								c-2.5,9.8-6.7,28.9-8.4,39.4c-0.5,3.1-0.4,4.9,0.6,4.9c1.4,0,4.3-1.9,7.9-5.7L402.8,270.6z M376.1,260.4
								c2.1-3,4-6.9,5.3-11.8c1.1-5.2,2.6-11.6,3.1-15c-1.8-1-5.5-1.8-8-1.8c-11.6,0-17.2,20.9-17,34.2c0,5,1.4,7.2,3.1,7.2
								C365.4,273.2,369.9,269.6,376.1,260.4z"/>
							<path class="st8" d="M472,270.8c-7.9,9.9-16.9,14-21.6,14c-4.4,0-6.5-2.8-4.1-14.6c1.5-7.8,4-17.5,5.9-25.3
								c1.5-6.2,0.5-7.9-1.3-7.9c-3.4,0-10.8,6.7-16.5,16.4c-2.6,4.5-3.5,7.7-4.5,11.8c-1.3,5.4-2.6,11.5-3.8,16.9
								c-4.9,0.5-10.7,1.6-14.5,2.8l-1-1.1c3-13,6.4-26.5,9.6-41.1c0.9-3.8,0.6-4.9-0.4-4.9c-1.4,0-4.9,2.5-7.5,5l-1.9-4
								c8-9.1,15.4-12.7,19.9-12.7c4.8,0,6.7,4.8,3.9,17.1l-1,4.1c7-10.4,19.2-21.3,28.6-21.3c4.8,0,9.1,2.4,5.2,19.2
								c-1.6,6.8-3.9,16.5-5.3,22.8c-0.6,3.3-0.6,4.6,0.4,4.6c1.4,0,4.3-1.5,8-5.8L472,270.8z"/>
						</g>
					</g>
				</g>
			</g>
		</g>
		<g>
			<g>
				<defs>
					<rect id="SVGID_17_" width="1280" height="720"/>
				</defs>
				<clipPath id="SVGID_18_">
					<use xlink:href="#SVGID_17_"  style="overflow:visible;"/>
				</clipPath>
				<g class="st14">
					<text transform="matrix(1 0 0 1 28.0387 412.4956)" class="st8 st9 st15 st16">food</text>
				</g>
			</g>
		</g>
		<g>
			<g>
				<defs>
					<rect id="SVGID_19_" width="1280" height="720"/>
				</defs>
				<clipPath id="SVGID_20_">
					<use xlink:href="#SVGID_19_"  style="overflow:visible;"/>
				</clipPath>
				<polygon class="st17" points="509.2,413.3 495.1,444.1 528.8,441 				"/>
			</g>
		</g>
		<g>
			<g>
				<defs>
					<rect id="SVGID_21_" width="1280" height="720"/>
				</defs>
				<clipPath id="SVGID_22_">
					<use xlink:href="#SVGID_21_"  style="overflow:visible;"/>
				</clipPath>
				<polygon class="st18" points="1164.7,374.8 1150.6,405.6 1184.3,402.5 				"/>
			</g>
		</g>
		<g>
			<g>
				<defs>
					<rect id="SVGID_23_" width="1280" height="720"/>
				</defs>
				<clipPath id="SVGID_24_">
					<use xlink:href="#SVGID_23_"  style="overflow:visible;"/>
				</clipPath>
				<polygon class="st19" points="197,496 174.6,499.6 188.9,517.3 				"/>
			</g>
		</g>
		<g>
			<g>
				<defs>
					<rect id="SVGID_25_" width="1280" height="720"/>
				</defs>
				<clipPath id="SVGID_26_">
					<use xlink:href="#SVGID_25_"  style="overflow:visible;"/>
				</clipPath>
				<polygon class="st20" points="576.4,379.1 544.4,367.7 550.6,401.1 				"/>
			</g>
		</g>
		<g>
			<g>
				<defs>
					<rect id="SVGID_27_" width="1280" height="720"/>
				</defs>
				<clipPath id="SVGID_28_">
					<use xlink:href="#SVGID_27_"  style="overflow:visible;"/>
				</clipPath>
				<polygon class="st21" points="406,535.9 401,516.1 386.4,530.4 				"/>
			</g>
		</g>
		<g>
			<g>
				<defs>
					<rect id="SVGID_29_" width="1280" height="720"/>
				</defs>
				<clipPath id="SVGID_30_">
					<use xlink:href="#SVGID_29_"  style="overflow:visible;"/>
				</clipPath>
				<polygon class="st22" points="146.2,580 160.9,610.6 180,582.5 				"/>
			</g>
		</g>
		<g>
			<g>
				<defs>
					<rect id="SVGID_31_" width="1280" height="720"/>
				</defs>
				<clipPath id="SVGID_32_">
					<use xlink:href="#SVGID_31_"  style="overflow:visible;"/>
				</clipPath>
				
					<linearGradient id="SVGID_33_" gradientUnits="userSpaceOnUse" x1="268.52" y1="880.65" x2="331.17" y2="880.65" gradientTransform="matrix(1 0 0 1 0 -358)">
					<stop  offset="0" style="stop-color:#FF4817"/>
					<stop  offset="1" style="stop-color:#FF4E11"/>
				</linearGradient>
				<polygon class="st23" points="331.2,547.7 297.4,494.8 268.5,550.5 				"/>
			</g>
		</g>
		<g>
			<g>
				<defs>
					<rect id="SVGID_34_" width="1280" height="720"/>
				</defs>
				<clipPath id="SVGID_35_">
					<use xlink:href="#SVGID_34_"  style="overflow:visible;"/>
				</clipPath>
				
					<linearGradient id="SVGID_36_" gradientUnits="userSpaceOnUse" x1="1694.9496" y1="-274.8688" x2="1757.601" y2="-274.8688" gradientTransform="matrix(0.9052 -0.4249 0.4249 0.9052 -1336.5809 1651.2848)">
					<stop  offset="0" style="stop-color:#FF4817"/>
					<stop  offset="1" style="stop-color:#FF4E11"/>
				</linearGradient>
				<polygon class="st24" points="148.2,678.3 95.2,644.8 92.7,707.5 				"/>
			</g>
		</g>
		<g>
			<g>
				<defs>
					<rect id="SVGID_37_" width="1280" height="720"/>
				</defs>
				<clipPath id="SVGID_38_">
					<use xlink:href="#SVGID_37_"  style="overflow:visible;"/>
				</clipPath>
				<polygon class="st25" points="550.8,327.9 530.2,329.2 541.6,346.5 				"/>
			</g>
		</g>
		<g>
			<g>
				<defs>
					<rect id="SVGID_39_" width="1280" height="720"/>
				</defs>
				<clipPath id="SVGID_40_">
					<use xlink:href="#SVGID_39_"  style="overflow:visible;"/>
				</clipPath>
				<polygon class="st26" points="521.6,104.9 540.8,97.1 524.5,84.4 				"/>
			</g>
		</g>
		<g>
			<g>
				<defs>
					<rect id="SVGID_41_" width="1280" height="720"/>
				</defs>
				<clipPath id="SVGID_42_">
					<use xlink:href="#SVGID_41_"  style="overflow:visible;"/>
				</clipPath>
				<polygon class="st27" points="314.4,587.3 293.7,588.6 305.1,605.9 				"/>
			</g>
		</g>
		<g>
			<g>
				<defs>
					<rect id="SVGID_43_" width="1280" height="720"/>
				</defs>
				<clipPath id="SVGID_44_">
					<use xlink:href="#SVGID_43_"  style="overflow:visible;"/>
				</clipPath>
				<polygon class="st28" points="108.5,579 90.2,588.7 107.8,599.7 				"/>
			</g>
		</g>
		<g>
			<g>
				<defs>
					<rect id="SVGID_45_" width="1280" height="720"/>
				</defs>
				<clipPath id="SVGID_46_">
					<use xlink:href="#SVGID_45_"  style="overflow:visible;"/>
				</clipPath>
				<polygon class="st29" points="269,637.9 261.5,618.5 248.5,634.7 				"/>
			</g>
		</g>
		<g>
			<g>
				<defs>
					<rect id="SVGID_47_" width="1280" height="720"/>
				</defs>
				<clipPath id="SVGID_48_">
					<use xlink:href="#SVGID_47_"  style="overflow:visible;"/>
				</clipPath>
				<polygon class="st30" points="405.8,29.9 387.4,20.4 388.4,41.1 				"/>
			</g>
		</g>
		<g>
			<g>
				<defs>
					<rect id="SVGID_49_" width="1280" height="720"/>
				</defs>
				<clipPath id="SVGID_50_">
					<use xlink:href="#SVGID_49_"  style="overflow:visible;"/>
				</clipPath>
				<polygon class="st31" points="219.6,464.9 206.4,457.9 207,472.8 				"/>
			</g>
		</g>
		<g>
			<g>
				<defs>
					<rect id="SVGID_51_" width="1280" height="720"/>
				</defs>
				<clipPath id="SVGID_52_">
					<use xlink:href="#SVGID_51_"  style="overflow:visible;"/>
				</clipPath>
				<polygon class="st32" points="562.8,30.4 551.9,38.5 564.4,43.9 				"/>
			</g>
		</g>
		<g>
			<g>
				<defs>
					<rect id="SVGID_53_" width="1280" height="720"/>
				</defs>
				<clipPath id="SVGID_54_">
					<use xlink:href="#SVGID_53_"  style="overflow:visible;"/>
				</clipPath>
				<polygon class="st33" points="331.2,451 338.3,488.8 367.5,463.8 				"/>
			</g>
		</g>
		<g>
			<g>
				<defs>
					<rect id="SVGID_55_" width="1280" height="720"/>
				</defs>
				<clipPath id="SVGID_56_">
					<use xlink:href="#SVGID_55_"  style="overflow:visible;"/>
				</clipPath>
				<polygon class="st34" points="257.4,493 256.1,483.6 248.6,489.4 				"/>
			</g>
		</g>
		<g>
			<g>
				<defs>
					<rect id="SVGID_57_" width="1280" height="720"/>
				</defs>
				<clipPath id="SVGID_58_">
					<use xlink:href="#SVGID_57_"  style="overflow:visible;"/>
				</clipPath>
				<polygon class="st35" points="125,550.1 123.7,540.7 116.2,546.5 				"/>
			</g>
		</g>
		<g>
			<g>
				<defs>
					<rect id="SVGID_59_" width="1280" height="720"/>
				</defs>
				<clipPath id="SVGID_60_">
					<use xlink:href="#SVGID_59_"  style="overflow:visible;"/>
				</clipPath>
				<polygon class="st36" points="474.6,43 420.9,46.3 450.6,91.3 				"/>
			</g>
		</g>
		<g>
			<g>
				<defs>
					<rect id="SVGID_61_" width="1280" height="720"/>
				</defs>
				<clipPath id="SVGID_62_">
					<use xlink:href="#SVGID_61_"  style="overflow:visible;"/>
				</clipPath>
				<polygon class="st37" points="425,119.9 440.4,150.2 458.9,121.7 				"/>
			</g>
		</g>
		<g>
			<g>
				<defs>
					<rect id="SVGID_63_" width="1280" height="720"/>
				</defs>
				<clipPath id="SVGID_64_">
					<use xlink:href="#SVGID_63_"  style="overflow:visible;"/>
				</clipPath>
				<polygon class="st38" points="1013.8,717.9 1284.3,725 1284.3,352.8 				"/>
			</g>
		</g>
		<g>
			<g>
				<defs>
					<rect id="SVGID_65_" width="1280" height="720"/>
				</defs>
				<clipPath id="SVGID_66_">
					<use xlink:href="#SVGID_65_"  style="overflow:visible;"/>
				</clipPath>
				<g class="st39">
					<text transform="matrix(1 0 0 1 1128.0563 649.2349)" class="st40 st41 st42">01</text>
				</g>
			</g>
		</g>
		<g>
			<g>
				<defs>
					<rect id="SVGID_67_" width="1280" height="720"/>
				</defs>
				<clipPath id="SVGID_68_">
					<use xlink:href="#SVGID_67_"  style="overflow:visible;"/>
				</clipPath>
				<g class="st43">
					<rect y="675.6" class="st44" width="1280" height="44.4"/>
					<rect y="673.4" class="st45" width="1280" height="4.2"/>
					<rect y="673.4" class="st46" width="19.8" height="4.2"/>
					<g>
						<polygon class="st40" points="90.1,688.7 90.1,711.3 106.1,700 						"/>
						<rect x="108.9" y="688.7" class="st40" width="3.8" height="22.6"/>
					</g>
					<g>
						<polygon class="st40" points="44.5,688.7 44.5,711.3 60.5,700 						"/>
					</g>
					<path class="st40" d="M1158.1,698.3l-0.6-1.5c0,0,1.5-3.4,1.4-3.5l-2-1.9c-0.1-0.1-3.5,1.4-3.5,1.4l-1.6-0.6
						c0,0-1.4-3.4-1.6-3.4h-2.8c-0.2,0-1.5,3.4-1.5,3.4l-1.6,0.6c0,0-3.4-1.5-3.6-1.3l-2,1.9c-0.1,0.1,1.4,3.4,1.4,3.4l-0.6,1.5
						c0,0-3.5,1.3-3.5,1.5v2.7c0,0.2,3.5,1.4,3.5,1.4l0.6,1.5c0,0-1.5,3.4-1.4,3.5l2,1.9c0.1,0.1,3.5-1.4,3.5-1.4l1.6,0.6
						c0,0,1.4,3.4,1.6,3.4h2.8c0.2,0,1.5-3.4,1.5-3.4l1.6-0.6c0,0,3.4,1.5,3.6,1.3l2-1.9c0.1-0.1-1.4-3.4-1.4-3.4l0.6-1.5
						c0,0,3.5-1.3,3.5-1.5v-2.7C1161.6,699.5,1158.1,698.3,1158.1,698.3z M1152.9,701.2c0,2.2-1.8,4-4.1,4c-2.2,0-4.1-1.8-4.1-4
						s1.8-4,4.1-4S1152.9,698.9,1152.9,701.2z"/>
					<path class="st40" d="M1208.7,710.5h-29.1v-19.1h29.1V710.5z M1181.8,708.4h24.8v-14.8h-24.8V708.4z"/>
					<g>
						<polygon class="st40" points="1240,691.5 1247.3,691.5 1247.3,698.9 1249.5,698.9 1249.5,689.4 1240,689.4 						"/>
						<polygon class="st40" points="1228.4,698.9 1228.4,691.5 1235.8,691.5 1235.8,689.4 1226.3,689.4 1226.3,698.9 						"/>
						<polygon class="st40" points="1247.3,703 1247.3,710.4 1240,710.4 1240,712.6 1249.5,712.6 1249.5,703 						"/>
						<polygon class="st40" points="1235.8,710.4 1228.4,710.4 1228.4,703 1226.3,703 1226.3,712.6 1235.8,712.6 						"/>
					</g>
					<text transform="matrix(0.9981 0 0 1 188.7246 706.5391)" class="st40 st47 st48">00:01/ 1:55:00</text>
					<polyline class="st40" points="140.2,704.5 146.4,704.5 149.1,704.5 150,704.5 154.3,708.7 157.2,711.7 157.3,711.7 
						157.3,711.7 157.3,709.2 157.3,707.4 157.3,699.7 157.3,692 157.3,690.2 157.3,687.8 157.3,687.7 157.2,687.8 154.3,690.7 
						150,695 149.1,695 146.4,695 140.2,695 					"/>
				</g>
			</g>
		</g>
		<g>
			<g>
				<defs>
					<rect id="SVGID_69_" width="1280" height="720"/>
				</defs>
				<clipPath id="SVGID_70_">
					<use xlink:href="#SVGID_69_"  style="overflow:visible;"/>
				</clipPath>
				<polygon class="st49" points="1217.7,474.8 1163.9,478 1193.6,523 				"/>
			</g>
		</g>
		<g>
			<g>
				<defs>
					<rect id="SVGID_71_" width="1280" height="720"/>
				</defs>
				<clipPath id="SVGID_72_">
					<use xlink:href="#SVGID_71_"  style="overflow:visible;"/>
				</clipPath>
				<polygon class="st50" points="1251.6,417.3 1247.3,386.5 1222.8,405.5 				"/>
			</g>
		</g>
	</g>
</g>
</svg>
