<?xml version="1.0" encoding="utf-8"?>
<!-- Generator: Adobe Illustrator 24.3.0, SVG Export Plug-In . SVG Version: 6.00 Build 0)  -->
<svg
    version="1.1"
    id="Layer_1"
    xmlns="http://www.w3.org/2000/svg" x="0px" y="0px"
    viewBox="0 0 24 24"
    style="enable-background:new 0 0 24 24;"
    xml:space="preserve">
<path d="
    M11,2
    c-0.2,0.1-0.5,0.2-0.7,0.3
    c-0.9,0.4-1.8,0.7-2.7,1
    c0.8,2.9,1.6,5.9,2.4,8.8
    H6.5
    c-0.3,0-0.5,0.3-0.5,0.6
    c0,0.2,0.1,0.3,0.1,0.4
    c0,0,0,0,0,0l5.1,5.4l0,0
    c0.2,0.2,0.4,0.3,0.7,0.3
    c0.3,0,0.5-0.1,0.7-0.3
    l0,0
    c0,0,0,0,0,0l5.1-5.4
    c0,0,0,0,0,0l0,0
    c0,0,0,0,0,0
    c0.1-0.1,0.1-0.2,0.1-0.4
    c0-0.3-0.2-0.6-0.5-0.6
    H14
    c0.7-2.9,1.4-5.8,2.1-8.7
    c-0.8-0.4-1.6-0.7-2.4-1.1
    C13.5,2.2,13.2,2.1,13,2
    h-1
    H11
    z

    M3,20
    c-0.6,0-1,0.4-1,1
    c0,0.6,0.4,1,1,1
    c0,0,0,0,0,0
    h18
    c0.6,0,1-0.4,1-1
    s-0.4-1-1-1
    c0,0,0,0,0,0
    H3
    z" />
</svg>
