<?xml version="1.0" encoding="utf-8"?><!-- Generator: Adobe Illustrator 24.3.0, SVG Export Plug-In . SVG Version: 6.00 Build 0)  -->
<svg version="1.1" xmlns="http://www.w3.org/2000/svg" xmlns:xlink="http://www.w3.org/1999/xlink"
	x="0px" y="0px" viewBox="0 0 1280 720" style="enable-background:new 0 0 1280 720;"
	xml:space="preserve">
<style type="text/css">
	.st0{fill:none;}
	.st1{fill:#757374;}
	.st2{fill:#B5B5B5;}
	.st3{fill:url(#Unnamed_Pattern_3);}
	.st4{clip-path:url(#SVGID_2_);fill:#FFD246;}
	.st5{clip-path:url(#SVGID_2_);}
	.st6{fill:#F48B00;}
	.st7{clip-path:url(#SVGID_2_);fill:#CA220E;}
	.st8{opacity:0.89;clip-path:url(#SVGID_2_);fill:#FFD246;}
	.st9{opacity:0.68;clip-path:url(#SVGID_2_);fill:#9D1D06;}
	.st10{opacity:0.63;clip-path:url(#SVGID_2_);fill:#F48B00;}
	.st11{fill:#1E1C1C;}
	.st12{font-family:'Raleway-BoldItalic';}
	.st13{font-size:87.6636px;}
	.st14{letter-spacing:8;}
	.st15{font-size:125.7915px;}
	.st16{letter-spacing:1;}
	.st17{font-size:111.7822px;}
	.st18{letter-spacing:11;}
	.st19{clip-path:url(#SVGID_2_);fill:#FF4817;}
	.st20{clip-path:url(#SVGID_2_);fill:#FF4A08;}
	.st21{clip-path:url(#SVGID_2_);fill:url(#SVGID_5_);}
	.st22{clip-path:url(#SVGID_2_);fill:url(#SVGID_6_);}
	.st23{clip-path:url(#SVGID_2_);fill:#FFAA00;}
	.st24{fill:#FFFFFF;}
	.st25{font-family:'Raleway-SemiBold';}
	.st26{font-size:122.8072px;}
	.st27{opacity:0.32;fill:#343434;}
	.st28{fill:#DBE2E8;}
	.st29{fill:#C42F34;}
	.st30{font-family:'OpenSans-Semibold';}
	.st31{font-size:14.2801px;}
</style>
	<pattern x="556.41" y="171.04" width="52.99" height="52.99" patternUnits="userSpaceOnUse"
		id="Unnamed_Pattern_3" viewBox="0 -52.99 52.99 52.99" style="overflow:visible;">
		<g>
			<rect x="0" y="-52.99" class="st0" width="52.99" height="52.99" />
			<rect x="0" y="-52.99" class="st1" width="26.5" height="26.5" />
			<rect x="26.5" y="-26.5" class="st1" width="26.5" height="26.5" />
			<g>
			<rect x="26.5" y="-52.99"
				transform="matrix(6.123234e-17 -1 1 6.123234e-17 79.489 4.500000e-04)" class="st2"
				width="26.5" height="26.5" />

				<rect x="0" y="-26.5"
					transform="matrix(6.123234e-17 -1 1 6.123234e-17 26.4975 -4.055000e-04)"
					class="st2" width="26.5" height="26.5" />
			</g>
		</g>
		</pattern>
		<g id="BACKGROUND">
		<rect class="st3" width="1280" height="720" />
		</g>
		<g id="OBJECTS">
		<g>
		<defs>
			<rect id="SVGID_1_" width="1280" height="720" />
		</defs>
		<clipPath id="SVGID_2_">
			<use xlink:href="#SVGID_1_" style="overflow:visible;" />
		</clipPath>
		<polygon class="st4" points="337.63,722.15 155.41,404.3 2.03,722.15" />
		<g class="st5">
            <g>
				<polygon class="st6"
					points="2.03,722.15 133.38,722.15 2.03,586.58" />
			</g>
		</g>
		<polygon class="st7" points="369.03,0 0,718.79 0,0" />
		<g class="st5">
			<defs>
				<polygon id="SVGID_3_"
					points="370.56,3.36 1.53,722.15 1.53,3.36" />
			</defs>
			<clipPath id="SVGID_4_">
				<use xlink:href="#SVGID_3_" style="overflow:visible;" />
			</clipPath>
		</g>
		<polygon class="st8" points="430.96,160.41 0,160.41 0,61.12 398.29,61.12" />
		<polygon class="st9" points="524,305.8 0,305.8 0,451.67 479.11,451.67" />
		<polygon class="st10" points="694.34,305.95 0,305.95 0,160.08 649.46,160.08" />
		<g class="st5">
			<text transform="matrix(1 0 0 1 28.0389 149.1665)"
				class="st11 st12 st13 st14">recIPE</text>
		</g>
		<g class="st5">
			<text transform="matrix(1 0 0 1 28.0382 283.2808)"
				class="st11 st12 st15 st16">mexican</text>
		</g>
		<g class="st5">
			<text transform="matrix(1 0 0 1 28.0387 412.4956)"
				class="st11 st12 st17 st18">food</text>
		</g>
		<polygon class="st19" points="509.24,413.33 495.06,444.15 528.84,441.02" />
		<polygon class="st19" points="1164.73,374.82 1150.56,405.65 1184.34,402.51 " />
		<polygon class="st4" points="196.98,496.05 174.55,499.62 188.86,517.26" />
		<polygon class="st20" points="576.38,379.08 544.4,367.74 550.58,401.1" />
		<polygon class="st20" points="406.05,535.89 400.97,516.09 386.36,530.4" />
		<polygon class="st20" points="146.17,580.01 160.91,610.57 180.01,582.52" />
		<linearGradient id="SVGID_5_" gradientUnits="userSpaceOnUse" x1="268.5198" y1="522.6467"
			x2="331.1687" y2="522.6467">
			<stop offset="0" style="stop-color:#FF4817" />
			<stop offset="1" style="stop-color:#FF4E11" />
		</linearGradient>
		<polygon class="st21" points="331.17,547.67 297.41,494.82 268.52,550.48 		" />

		<linearGradient id="SVGID_6_" gradientUnits="userSpaceOnUse" x1="1907.5173" y1="-870.0572"
			x2="1970.1687" y2="-870.0572"
			gradientTransform="matrix(0.9052 -0.4249 0.4249 0.9052 -1276.0986 2280.3711)">
			<stop offset="0" style="stop-color:#FF4817" />
			<stop offset="1" style="stop-color:#FF4E11" />
		</linearGradient>
		<polygon class="st22" points="148.24,678.32 95.23,644.82 92.72,707.48 		" />
		<polygon class="st23" points="550.85,327.93 530.16,329.19 541.59,346.48 		" />
		<polygon class="st20" points="521.64,104.91 540.85,97.13 524.5,84.38 		" />
		<polygon class="st23" points="314.38,587.35 293.69,588.61 305.12,605.9 		" />
		<polygon class="st23" points="108.54,578.95 90.23,588.68 107.81,599.67 		" />
		<polygon class="st23" points="268.95,637.91 261.53,618.55 248.47,634.65 		" />
		<polygon class="st23" points="405.84,29.94 387.44,20.4 388.38,41.11 		" />
		<polygon class="st4" points="219.64,464.88 206.44,457.93 207.03,472.84 		" />
		<polygon class="st23" points="562.76,30.39 551.9,38.55 564.4,43.88 		" />
		<polygon class="st23" points="331.19,451.03 338.31,488.8 367.46,463.75 		" />
		<polygon class="st23" points="257.39,493.01 256.09,483.61 248.6,489.43 		" />
		<polygon class="st23" points="125.01,550.09 123.72,540.69 116.22,546.51 		" />
		<polygon class="st4" points="474.63,43.05 420.85,46.32 450.57,91.26 		" />
		<polygon class="st19" points="425.05,119.92 440.44,150.16 458.93,121.71 		" />
		<polygon class="st7" points="1013.83,717.89 1284.3,725.02 1284.3,352.81 		" />
		<g class="st5">
			<text transform="matrix(1 0 0 1 1128.0563 649.2349)" class="st24 st25 st26">01</text>
		</g>
		<g class="st5">
			<rect y="675.61" class="st27" width="1280" height="44.39" />
			<rect y="673.44" class="st28" width="1280" height="4.17" />
			<rect y="673.44" class="st29" width="19.76" height="4.17" />
			<g>
				<polygon class="st24"
					points="90.06,688.69 90.06,711.32 106.13,700.01" />
				<rect x="108.92" y="688.69" class="st24" width="3.76" height="22.63" />
			</g>
			<g>
				<polygon class="st24"
					points="44.45,688.69 44.45,711.32 60.53,700.01" />
			</g>
			<path class="st24" d="M1158.09,698.29l-0.64-1.53c0,0,1.5-3.38,1.36-3.51l-1.98-1.93c-0.14-0.13-3.52,1.41-3.52,1.41l-1.56-0.63
				c0,0-1.38-3.42-1.57-3.42h-2.8c-0.19,0-1.47,3.43-1.47,3.43l-1.56,0.63c0,0-3.45-1.47-3.58-1.34l-1.98,1.94
				c-0.14,0.13,1.44,3.44,1.44,3.44l-0.64,1.53c0,0-3.5,1.35-3.5,1.53v2.74c0,0.19,3.5,1.44,3.5,1.44l0.64,1.52
				c0,0-1.5,3.37-1.36,3.5l1.98,1.94c0.13,0.13,3.51-1.41,3.51-1.41l1.56,0.63c0,0,1.38,3.42,1.57,3.42h2.8
				c0.19,0,1.47-3.43,1.47-3.43l1.56-0.63c0,0,3.44,1.47,3.58,1.34l1.98-1.94c0.14-0.14-1.44-3.44-1.44-3.44l0.64-1.53
				c0,0,3.5-1.35,3.5-1.53v-2.74C1161.59,699.53,1158.09,698.29,1158.09,698.29z M1152.94,701.15c0,2.2-1.83,4-4.09,4
				c-2.25,0-4.09-1.8-4.09-4c0-2.2,1.84-4,4.09-4C1151.1,697.15,1152.94,698.94,1152.94,701.15z" />
			<path class="st24"
				d="M1208.73,710.54h-29.08v-19.13h29.08V710.54z M1181.79,708.4h24.8v-14.85h-24.8V708.4z" />
			<g>
				<polygon class="st24" points="1239.97,691.53 1247.35,691.53 1247.35,698.91 1249.49,698.91 1249.49,689.39 1239.97,689.39" />
				<polygon class="st24" points="1228.44,698.91 1228.44,691.53 1235.82,691.53 1235.82,689.39 1226.3,689.39 1226.3,698.91" />
				<polygon class="st24" points="1247.35,703.05 1247.35,710.43 1239.97,710.43 1239.97,712.58 1249.49,712.58 1249.49,703.05" />
				<polygon class="st24" points="1235.82,710.43 1228.44,710.43 1228.44,703.05 1226.3,703.05 1226.3,712.58 1235.82,712.58" />
			</g>
			<text transform="matrix(0.9981 0 0 1 188.7243 706.5386)" class="st24 st30 st31">00:01/ 1:55:00</text>
			<polyline class="st24" points="140.23,704.45 146.35,704.45 149.12,704.45 150.04,704.45 154.26,708.68 157.23,711.65
				157.31,711.73 157.31,711.66 157.3,709.18 157.3,707.38 157.3,699.71 157.3,692.04 157.3,690.24 157.31,687.76 157.31,687.69 
				157.23,687.77 154.26,690.74 150.04,694.97 149.12,694.97 146.35,694.97 140.23,694.97 			" />
		</g>
		<polygon class="st4" points="1217.69,474.76 1163.91,478.03 1193.63,522.98 		" />
		<polygon class="st23" points="1251.58,417.27 1247.34,386.47 1222.78,405.54 		" />
	</g>
</g>
</svg>
